<?xml version="1.0" encoding="utf-8"?>
<svg height="800px" width="800px" version="1.1" id="Capa_1" xmlns="http://www.w3.org/2000/svg" viewBox="0 0 18.29 18.29">
  <g style="" transform="matrix(0.755298, 0, 0, 0.753327, 1.843753, 3.230761)">
    <g>
      <path style="fill: rgb(3, 1, 4);" d="M 14.944 8.934 C 15.609 8.675 16.059 8.295 16.059 7.851 C 16.059 7.413 15.609 7.037 14.944 6.772 C 14.281 7.037 13.828 7.409 13.828 7.851 C 13.828 8.295 14.281 8.675 14.944 8.934 Z"/>
      <path style="fill: rgb(3, 1, 4);" d="M -0.116 12.854 C -0.085 12.861 0.206 12.916 0.598 12.916 C 1.084 12.916 1.768 12.826 2.263 12.414 C 2.286 12.391 2.313 12.371 2.336 12.348 C 2.354 12.366 2.371 12.382 2.39 12.398 C 2.915 12.839 3.768 12.93 4.392 12.93 C 4.595 12.93 4.735 12.918 4.736 12.918 L 5.365 12.915 C 5.85 12.915 6.536 12.825 7.029 12.413 C 7.055 12.39 7.079 12.37 7.104 12.347 C 7.121 12.365 7.14 12.38 7.158 12.396 C 7.75 12.895 8.617 12.97 9.081 12.97 C 9.271 12.97 9.429 12.956 9.513 12.947 C 9.537 12.948 9.565 12.949 9.598 12.949 L 9.78 12.947 C 9.882 12.944 10.007 12.941 10.147 12.941 C 10.458 12.941 11.243 12.89 11.813 12.412 C 11.838 12.389 11.862 12.369 11.886 12.346 C 11.906 12.364 11.922 12.38 11.941 12.395 C 12.466 12.836 13.318 12.928 13.942 12.928 C 14.148 12.928 14.284 12.916 14.286 12.916 L 14.914 12.913 C 15.4 12.913 16.085 12.823 16.582 12.411 C 16.606 12.388 16.63 12.368 16.653 12.345 C 16.673 12.361 16.69 12.378 16.708 12.394 C 17.597 13.145 19.053 12.867 19.126 12.851 C 19.422 12.799 19.619 12.511 19.567 12.212 C 19.517 11.949 19.293 11.758 19.029 11.758 L 18.931 11.769 C 18.827 11.788 18.639 11.808 18.427 11.808 C 17.968 11.808 17.608 11.715 17.408 11.55 C 17.316 11.47 17.193 11.328 17.193 10.991 C 17.193 10.687 16.95 10.439 16.649 10.439 C 16.348 10.439 16.102 10.687 16.102 10.991 C 16.102 11.34 15.979 11.483 15.885 11.561 C 15.589 11.811 15 11.96 14.312 11.96 C 13.602 11.96 12.932 11.794 12.641 11.55 C 12.573 11.492 12.492 11.399 12.452 11.23 C 15.655 10.626 16.965 9.362 16.965 7.893 L 16.962 7.893 L 16.962 6.606 C 16.962 6.403 16.726 6.239 16.435 6.239 L 11.946 6.239 L 11.139 3.874 C 11.139 3.694 10.967 3.548 10.756 3.548 L 8.112 3.548 L 7.531 2.469 L 6 2.469 L 6 3.564 C 5.844 3.607 5.731 3.73 5.731 3.876 L 5.731 4.709 L 4.297 4.709 C 4.086 4.709 3.915 4.856 3.915 5.035 L 3.87 5.163 L 3.808 5.345 L 3.652 5.801 L 3.589 5.983 L 3.501 6.241 L 2.848 6.241 C 2.556 6.241 2.048 6.406 2.048 6.608 L 2.076 7.901 C 2.076 7.907 2.078 7.914 2.078 7.921 C 2.092 8.917 1.948 9.82 2.529 10.483 C 2.468 10.458 2.401 10.442 2.331 10.442 C 2.03 10.442 1.784 10.69 1.784 10.994 C 1.784 11.343 1.661 11.486 1.569 11.565 C 1.321 11.772 0.911 11.815 0.609 11.815 C 0.337 11.815 0.122 11.781 0.085 11.774 L -0.016 11.763 C -0.279 11.763 -0.504 11.952 -0.552 12.213 C -0.604 12.511 -0.41 12.798 -0.116 12.854 Z M 14.481 7.28 C 14.629 7.28 14.76 7.339 14.866 7.429 C 14.973 7.339 15.104 7.28 15.254 7.28 C 15.594 7.28 15.867 7.557 15.867 7.901 C 15.867 8.242 15.594 8.52 15.254 8.52 C 15.104 8.52 14.973 8.46 14.866 8.373 C 14.76 8.46 14.629 8.52 14.481 8.52 C 14.142 8.52 13.867 8.242 13.867 7.901 C 13.867 7.557 14.142 7.28 14.481 7.28 Z M 6.481 4.775 L 10.822 4.775 L 10.822 5.328 L 6.481 5.328 L 6.481 4.775 Z M 4.528 6.016 L 10.982 6.016 L 10.982 6.568 L 4.528 6.568 L 4.528 6.016 Z"/>
    </g>
  </g>
  <rect x="5.762" y="5.904" width="0.907" height="0.148" style="stroke: rgb(0, 0, 0); fill-rule: nonzero; stroke-width: 0.1px; transform-box: fill-box; transform-origin: 50% 50%;" transform="matrix(-0.000234, 1, -1, -0.000234, -0.415918, 2.00696)"/>
  <rect x="5.762" y="5.904" width="0.907" height="0.148" style="stroke: rgb(0, 0, 0); fill-rule: nonzero; stroke-width: 0.1px; transform-origin: 6.216px 5.978px;" transform="matrix(-0.000234, 1, -1, -0.000234, 0.243305, 1.93894)"/>
  <rect x="5.762" y="5.904" width="0.907" height="0.148" style="stroke: rgb(0, 0, 0); fill-rule: nonzero; stroke-width: 0.1px; transform-origin: 6.216px 5.978px;" transform="matrix(-0.000234, 1, -1, -0.000234, 0.89188, 1.913995)"/>
  <rect x="5.762" y="5.904" width="0.907" height="0.148" style="stroke: rgb(0, 0, 0); fill-rule: nonzero; stroke-width: 0.1px; transform-origin: 6.216px 5.978px;" transform="matrix(-0.000234, 1, -1, -0.000234, 1.540458, 1.895285)"/>
  <rect x="5.762" y="5.904" width="0.907" height="0.148" style="stroke: rgb(0, 0, 0); fill-rule: nonzero; stroke-width: 0.1px; transform-origin: 6.216px 5.978px;" transform="matrix(-0.000234, 1, -1, -0.000234, 2.195269, 1.876576)"/>
  <rect x="5.762" y="5.904" width="0.907" height="0.148" style="stroke: rgb(0, 0, 0); fill-rule: nonzero; stroke-width: 0.1px; transform-origin: 6.216px 5.978px;" transform="matrix(-0.000234, 1, -1, -0.000234, 2.825136, 1.882814)"/>
  <rect x="5.762" y="5.904" width="0.907" height="0.148" style="stroke: rgb(0, 0, 0); fill-rule: nonzero; stroke-width: 0.1px; transform-origin: 6.216px 5.978px;" transform="matrix(-0.000234, 1, -1, -0.000234, 3.436293, 2.001301)"/>
  <ellipse style="stroke: rgb(0, 0, 0); stroke-width: 0.1px; fill: rgb(255, 255, 255);" cx="-4.813" cy="9.573" rx="0.389" ry="0.378" transform="matrix(-1, 0, 0, 1, 0, 0)"/>
  <ellipse style="stroke: rgb(0, 0, 0); stroke-width: 0.1px; fill: rgb(255, 255, 255);" cx="-5.807" cy="9.555" rx="0.389" ry="0.378" transform="matrix(-1, 0, 0, 1, 0, 0)"/>
  <ellipse style="stroke: rgb(0, 0, 0); stroke-width: 0.1px; fill: rgb(255, 255, 255);" cx="-6.816" cy="9.567" rx="0.389" ry="0.378" transform="matrix(-1, 0, 0, 1, 0, 0)"/>
  <g transform="matrix(0.00029, 0, 0, -0.00029, 10.878001, 11.198081)" fill="#000000" stroke="none" style="">
    <path d="M6205 10113 c-268 -37 -545 -243 -676 -505 -64 -128 -90 -232 -96 -388 -8 -220 39 -398 149 -567 70 -108 169 -198 353 -321 125 -83 164 -115 178 -143 36 -74 46 -419 15 -562 -5 -26 -21 -60 -34 -76 -40 -47 -87 -54 -330 -47 l-216 6 -82 71 c-117 103 -142 114 -251 114 -107 0 -146 -17 -216 -92 -63 -67 -83 -129 -77 -242 5 -101 33 -173 95 -236 53 -55 104 -75 193 -75 97 0 145 22 232 106 80 78 126 99 240 114 189 23 405 -30 437 -107 14 -36 32 -2582 18 -2658 -14 -80 -64 -174 -126 -236 -186 -185 -508 -230 -846 -118 -248 82 -605 306 -785 494 l-45 47 77 71 c143 133 156 168 81 220 -407 282 -633 467 -730 600 -33 45 -38 48 -49 32 -15 -20 -58 -199 -73 -300 -28 -195 -22 -473 14 -681 9 -49 32 -136 51 -194 71 -213 101 -232 207 -131 59 55 95 81 115 81 4 0 46 -52 92 -117 219 -306 473 -549 741 -711 176 -105 279 -149 634 -267 143 -48 294 -101 335 -117 260 -103 438 -244 530 -420 23 -43 44 -78 48 -78 4 0 25 33 47 72 72 127 210 257 365 341 74 40 158 75 536 217 291 110 479 196 617 283 281 178 542 430 761 735 33 45 66 82 74 82 8 0 48 -29 89 -66 63 -54 80 -65 106 -62 26 3 35 11 58 58 92 184 136 461 126 785 -6 176 -20 278 -53 380 -24 73 -65 165 -75 165 -5 0 -21 -24 -35 -52 -80 -160 -197 -273 -459 -446 -229 -151 -305 -208 -305 -228 0 -9 48 -62 106 -119 81 -79 104 -108 100 -123 -13 -39 -286 -258 -450 -359 -497 -308 -997 -325 -1225 -40 -18 23 -49 74 -67 112 -67 139 -66 126 -75 1010 -4 440 -11 942 -15 1115 -9 435 10 625 70 685 32 32 101 40 326 40 212 0 197 5 321 -111 99 -91 188 -114 309 -78 41 12 67 29 110 72 73 73 95 133 95 252 -1 101 -21 155 -85 224 -62 67 -118 90 -215 91 -98 0 -135 -17 -220 -105 -82 -84 -117 -100 -240 -111 -121 -10 -326 3 -378 24 -61 26 -82 95 -98 324 -15 222 8 362 67 415 11 9 71 41 134 71 173 84 279 188 376 371 85 159 116 284 117 466 1 263 -78 471 -247 649 -151 158 -321 249 -535 286 -76 14 -263 18 -336 8z m338 -398 c190 -40 339 -195 377 -392 20 -100 8 -274 -23 -355 -71 -185 -204 -309 -376 -348 -73 -17 -223 -15 -295 5 -132 35 -270 132 -336 235 -84 131 -109 341 -58 486 98 279 399 435 711 369z" style="fill: rgb(255, 255, 255);"/>
  </g>
  <g id="Capa_1">
    <g transform="matrix(1, 0, 0, 1, -3.73186, 5.916607)">
      <g/>
    </g>
  </g>
  <ellipse style="stroke-width: 0.2px; fill: rgb(255, 255, 255); stroke: rgb(255, 255, 255);" cx="15.339" cy="11.009" rx="0.685" ry="0.949"/>
  <ellipse style="stroke-width: 0.2px; fill: rgb(255, 255, 255); stroke: rgb(255, 255, 255); transform-box: fill-box; transform-origin: 50% 50%;" cx="13.554" cy="10.127" rx="0.685" ry="0.361" transform="matrix(0.857217, -0.514955, 0.514955, 0.857217, 0.18518, 1.403885)"/>
  <ellipse style="stroke-width: 0.2px; fill: rgb(255, 255, 255); stroke: rgb(255, 255, 255); transform-origin: 13.554px 10.127px;" cx="13.554" cy="10.127" rx="0.685" ry="0.361" transform="matrix(0.823296, 0.567613, -0.567613, 0.823296, 1.518555, 1.346703)"/>
  <ellipse style="stroke-width: 0.2px; fill: rgb(255, 255, 255); stroke: rgb(255, 255, 255); transform-origin: 13.554px 10.127px;" cx="13.554" cy="10.127" rx="0.685" ry="0.361" transform="matrix(0.857217, -0.514955, 0.514955, 0.857217, -10.610692, 1.368333)"/>
  <title>plane</title>
  <g transform="matrix(0.028304, 0, 0, 0.028304, 2.277237, -2.592144)" style="">
    <title>Layer 1</title>
    <g stroke="null" id="svg_43" style="" transform="matrix(0.548658, 0, 0, 0.548658, 31.559618, 225.225784)">
      <path stroke="null" id="svg_39" d="m625.29914,739.91307c0.10327,-60.8727 50.64583,-110.13366 112.88901,-110.03269c62.02318,0.10536 112.52084,49.69119 112.34124,110.31365c-0.1796,60.75417 -50.73562,110.03708 -112.76329,109.91416c-62.12645,-0.12731 -112.55676,-49.55071 -112.46696,-110.19512zm115.83886,-30.29148c-0.20204,-1.5936 -0.33674,-2.92818 -0.54328,-4.24959c-0.54328,-3.55157 -2.75679,-5.75538 -6.06134,-7.02411c-1.109,-0.43901 -9.76998,1.97114 -10.48387,2.9633c-1.18982,1.65945 -2.44698,3.32328 -3.30904,5.15394c-1.75554,3.74473 -2.1282,4.09154 -6.19603,4.07398c-0.94736,0 -1.89922,0.1317 -2.85107,0.17999c-3.75803,0.1756 -5.1005,-1.06679 -5.06009,-4.70615c0,-1.52774 0.13021,-3.07305 0.07633,-4.58762c-0.06735,-1.94919 0.5747,-2.66916 2.76128,-2.44527c2.79719,0.28535 5.64827,0.07024 8.46791,0.07024c0.47144,-4.53933 0.44899,-4.47787 -3.97354,-5.90025c-0.89798,-0.28974 -1.56697,-1.25117 -2.77474,-2.26528c1.5086,-0.39072 2.16412,-0.63217 2.8376,-0.71997c2.72087,-0.3556 5.30255,-0.60144 7.57891,-2.68672c1.83636,-1.67701 4.40008,-2.74379 6.81115,-3.64376c3.5919,-1.33897 3.96456,-1.52774 3.68619,-5.47003c-0.14368,-2.03699 0.57919,-3.40669 2.71638,-4.27593c0.67348,0.92191 1.20778,1.91407 1.98902,2.63404c0.89798,0.87801 1.98453,2.04577 3.08006,2.15113a48.2168,47.14495 0 0 0 8.32423,-0.1317c0.76777,-0.05707 1.94861,-0.68485 2.13269,-1.29068c0.89798,-2.95891 2.86454,-4.63591 5.78296,-5.65441c0.74981,-0.25901 1.48166,-1.62433 1.48166,-2.48478c0,-0.53998 -1.34696,-1.14581 -2.14616,-1.60238a25.72251,25.15071 0 0 0 -2.37964,-1.03606c-0.82614,-0.36438 -1.69268,-1.11947 -2.45596,-1.02289c-0.68695,0.08341 -1.52656,0.98777 -1.79595,1.71213c-0.52083,1.31702 -0.54777,2.84037 -1.0192,4.19252c-0.83512,2.40576 -3.80293,3.82375 -6.38012,3.16085c-2.66699,-0.68485 -2.37515,-2.77013 -2.24494,-4.74127c0.04041,-0.67607 0.1347,-1.34336 0.2649,-2.60331c-2.0384,3.56474 -4.93887,4.26276 -8.24791,3.90277c-2.74781,-0.29852 -4.16661,-3.24426 -2.30331,-5.24174c4.04089,-4.34178 7.983,-8.9733 14.52476,-9.89522c1.28411,-0.17999 2.5278,-0.65851 3.81191,-0.81655c5.4103,-0.65851 10.93285,-0.79899 16.21295,-1.98431c6.1646,-1.37848 12.12267,-3.64815 18.59259,-5.66758c-19.23464,-8.65283 -38.93622,-11.52832 -59.46844,-8.54746q-26.34661,3.82814 -47.65108,19.75531c3.05761,5.82123 2.01147,10.67226 -2.1731,15.42231c-3.30904,3.7579 -5.91766,8.10846 -8.83608,12.2c-1.32451,1.86139 -2.49188,4.41202 -5.28459,3.67888c-2.69393,-0.7068 -2.45147,-3.45498 -2.48739,-5.60173c-0.0449,-2.56819 0.24694,-5.14516 0.39511,-7.71774l-0.70042,-0.33365c-3.107,4.85542 -6.05236,9.82058 -9.37936,14.52674c-2.06085,2.92379 -1.68819,5.45247 0.05837,8.16992a22.40449,21.90644 0 0 1 1.67023,2.8755c1.14492,2.55063 2.30331,5.11004 3.25965,7.73091c0.74532,2.05016 0,3.38913 -2.15514,4.44714c-4.04089,1.97553 -7.83933,4.35056 -11.76797,6.51486c-1.64779,0.90435 -2.40657,2.19503 -2.69393,4.0213c-1.5535,10.24642 -1.40084,20.44894 0,30.73048c0.74083,5.44369 2.21351,9.96985 8.01892,11.97172c0.47593,0.16682 0.84859,0.59266 1.29757,0.84289a12.26186,11.98928 0 0 1 5.88174,7.08118a81.33414,79.5261 0 0 0 4.19355,9.8601c0.55674,1.12386 1.79595,2.33113 2.95883,2.6955c5.32949,1.65506 10.37162,3.77985 15.00068,6.89241c1.34696,0.87801 1.92616,1.62433 1.38288,3.25743c-1.88126,5.65002 -1.89922,11.92343 -6.20501,16.60763c30.2528,27.91645 78.17776,36.60879 119.33647,15.36524c40.63789,-20.98892 56.28062,-61.46097 55.12673,-89.88227c-5.19928,4.6842 -9.64875,9.49133 -11.48062,16.01497c-4.18457,-0.64534 -6.28583,-2.49356 -6.3442,-6.4534c-0.08082,-6.83973 -2.72087,-12.13415 -8.55771,-15.90522a3.45721,3.38035 0 0 1 -0.77226,-0.68046a7.88423,7.70896 0 0 0 -7.44422,-2.84915c-4.5707,0.56632 -7.85729,-1.25117 -10.66346,-4.49982c-0.48491,-0.56193 -1.30655,-0.84289 -1.97555,-1.25556c-0.14817,0.17999 -0.30082,0.35999 -0.44899,0.53559c1.109,1.90529 2.31229,3.7579 3.29557,5.70709c0.79022,1.57164 1.84534,2.27406 3.65476,2.01943a8.30627,8.12163 0 0 1 7.56095,2.476c2.6625,2.66916 2.24494,4.59201 -1.18533,6.18122c-3.5919,1.66384 -6.99074,3.67888 -10.50632,5.47881c-2.45147,1.25117 -4.93887,2.476 -7.45769,3.56474c-1.44574,0.62778 -2.57719,0.28096 -3.25067,-1.39604c-1.64779,-4.0213 -3.44374,-7.96359 -5.1005,-11.98489c-1.40533,-3.42425 -3.25516,-6.53242 -6.19603,-9.07427a23.17226,22.65715 0 0 0 1.39186,6.90558a69.06331,67.52804 0 0 0 4.27885,8.7099a14.15659,13.84189 0 0 1 1.41431,11.25614a10.14712,9.92156 0 0 0 -0.18857,1.22483c5.98052,1.60238 10.09325,-3.16524 15.9256,-4.4647c-1.76452,4.5964 -3.14291,8.42454 -4.73233,12.16488a10.23243,10.00497 0 0 1 -2.48739,3.22231c-2.32127,2.15113 -4.57968,4.46031 -7.23319,6.1461c-3.14291,1.99748 -3.75803,4.56567 -3.14291,7.80993c0.15266,0.83411 0.22,1.68579 0.36817,2.5199c0.56123,3.2267 -0.15715,6.1461 -2.54127,8.45088c-3.14291,3.07305 -6.45196,5.93537 -9.56793,9.00842c-1.63432,1.61116 -3.52006,3.26621 -4.40008,5.26808c-2.35719,5.37344 -7.11197,6.33926 -12.09573,6.83534c-1.45472,0.14048 -3.44374,-0.43901 -4.44049,-1.41799c-1.58942,-1.56286 -2.46045,-3.79302 -3.79395,-5.63246c-4.32824,-5.98805 -7.04911,-12.14732 -2.69393,-19.28996c1.13594,-1.86578 0.78573,-3.64376 -0.22,-5.53588c-1.54003,-2.89306 -2.84209,-5.91342 -4.23396,-8.91184c-0.89798,-1.91846 -1.53105,-4.04764 -2.81964,-5.68075a9.24017,9.03476 0 0 0 -4.31028,-2.79647c-3.06659,-0.97899 -6.16011,-0.47413 -9.14139,0.76826c-4.35518,1.8131 -10.34917,0.60583 -13.73454,-2.55063c-1.88126,-1.75603 -3.75803,-3.60425 -5.94011,-4.93883c-2.49188,-1.51896 -3.49313,-3.59986 -3.89721,-6.2339c-0.98777,-6.47096 -0.44899,-12.87168 0.71838,-19.26362a8.58016,8.38942 0 0 1 4.05885,-5.91342a13.34841,13.05168 0 0 0 3.08904,-2.99842c2.54127,-3.17402 4.67396,-6.68169 9.34793,-7.40605c1.92616,-0.29852 3.71762,-1.39604 5.59439,-2.05894a12.92187,12.63462 0 0 1 2.99026,-0.75948c2.76128,-0.28974 5.53602,-0.46535 8.30627,-0.68046c5.81439,-0.46096 5.81439,-0.46096 7.33646,4.95639c1.17186,4.18374 2.8825,5.49637 7.01768,4.00813s8.15362,-1.07996 12.23941,-0.33365c5.92215,1.07996 11.67368,0.37755 17.54644,-1.17654c-0.22,-1.95797 -0.41307,-3.69205 -0.59266,-5.29442c-2.13269,-0.20194 -3.95109,-0.32048 -5.75602,-0.55315c-5.38785,-0.69363 -5.38785,-0.71119 -6.68543,-5.88708c-0.02245,-0.08341 -0.02694,-0.17121 -0.05388,-0.25023c-0.58368,-1.53652 0.18857,-2.33552 1.62983,-2.46283a41.02402,40.11206 0 0 1 5.45969,-0.11853c3.55149,0.13609 7.0985,0.50925 10.65448,0.54437c2.46494,0.02634 3.35843,-1.22922 2.51882,-3.48571c-0.41756,-1.11069 -1.25717,-2.37503 -2.24494,-2.91501c-2.65352,-1.41799 -5.38785,-3.09939 -8.2973,-3.54279c-5.72459,-0.87801 -8.12219,-0.7507 -8.80016,5.92659c-0.05837,0.59266 -0.14368,1.17654 -0.23796,1.9448c-2.00249,0.43901 -4.04089,0.6629 -4.51682,3.46815c-0.44899,2.63404 -2.57719,3.70083 -4.77274,3.21353c-1.98902,-0.43901 -2.69393,-2.34869 -2.5278,-5.1715c0.08082,-1.34775 -0.54328,-2.88867 -1.28411,-4.08276c-0.63756,-1.04045 -1.94861,-1.66384 -2.85556,-2.57258c-1.62983,-1.64189 -3.53353,-1.67262 -5.83684,-1.26873c2.33025,3.65254 6.36665,5.91781 6.90094,9.78546l-6.52379,3.02037zm57.59616,-11.41418c0.06735,-3.01159 -1.45023,-4.71932 -3.20128,-3.95106c-1.82289,0.7946 -4.56621,6.3217 -4.18457,8.41576c0.44899,2.58136 1.05512,5.14955 1.37839,7.74847c0.44899,3.65254 1.47268,4.49543 5.22622,3.64815c1.52207,-0.34682 3.5919,-0.43901 3.50211,-2.65599c-0.08531,-2.37503 0.23347,-4.89054 -2.08779,-6.75632c-0.70042,-0.56193 -0.89798,-1.96236 -0.94287,-2.99842c-0.06286,-1.25995 0.23347,-2.53307 0.32776,-3.45498l-0.01796,0.00439z"/>
      <path stroke="null" id="svg_40" d="m717.25184,677.64433c-3.78497,-0.43901 -5.38785,-1.90529 -5.98501,-5.21979c-0.47144,-2.59453 -1.14043,-4.98273 0.80369,-7.46312c0.72736,-0.9263 0.24245,-2.77452 0.28735,-4.20569c0.08082,-2.53746 2.53678,-4.92566 4.90295,-4.22325c1.02818,0.30291 2.09228,2.00187 2.28535,3.20036c0.50736,3.21353 1.42778,6.04513 4.25191,8.05139a2.27637,2.22576 0 0 1 0.72287,1.63311c-0.10327,2.98086 -1.66574,5.26808 -4.04089,6.9407c-0.91145,0.64973 -2.14167,0.86923 -3.22822,1.28629z"/>
      <path stroke="null" id="svg_41" d="m793.77284,789.35403c-0.79022,1.87456 -1.57595,3.75351 -2.37964,5.62368c-0.83512,1.94041 -1.46819,4.00813 -2.60413,5.76416c-0.77226,1.1941 -2.35719,2.83159 -3.40333,2.72184c-2.14616,-0.22828 -2.63107,-2.33113 -2.59964,-4.33739c0.04939,-3.3145 1.31104,-5.93537 3.9466,-8.17431c1.23921,-1.05362 1.79595,-2.93257 2.49637,-4.51738c0.42205,-0.97021 0.30082,-2.54624 1.89024,-1.9887c0.86655,0.3073 1.54452,1.48384 1.998,2.41015c0.30531,0.619 0.05837,1.49262 0.05837,2.2565l0.59715,0.24145z"/>
      <path stroke="null" id="svg_42" d="m704.44222,673.93033c1.4188,-2.63404 0.83512,-5.93098 4.1262,-7.79676c0.5747,2.19503 1.34696,4.2013 1.60289,6.29097c0.26041,2.30918 -2.0384,1.80871 -3.34496,2.19503c-0.59715,0.16682 -1.41431,-0.38633 -2.38413,-0.68924z"/>
    </g>
  </g>
</svg>