<?xml version="1.0" encoding="utf-8"?>
<svg height="800px" width="800px" version="1.1" id="Capa_1" xmlns="http://www.w3.org/2000/svg" viewBox="0 0 18.29 18.29">
  <g id="Capa_1">
    <g transform="matrix(1, 0, 0, 1, -3.73186, 5.916607)">
      <g/>
    </g>
  </g>
  <title>plane</title>
  <g id="Layer_2" style="" transform="matrix(0.021788, 0, 0, 0.021788, 8.846774, 7.339895)">
    <title>cyclist</title>
    <path d="M -66.224 -121.18 C -97.33 -124.46 -113.22 -160.19 -94.83 -185.48 C -76.432 -210.78 -37.552 -206.68 -24.84 -178.1 C -21.959 -171.62 -20.823 -164.51 -21.544 -157.45 C -23.917 -135.13 -43.887 -118.92 -66.224 -121.18 Z"/>
    <path class="cls-1" d="M -14.334 254.015 C -13.954 251.245 -13.564 248.485 -13.184 245.725 L -14.334 245.725 L -14.334 254.015 Z" style="fill: none;"/>
    <path class="cls-1" d="M 16.936 258.735 C 17.726 258.735 18.506 258.575 19.436 258.475 L 19.436 246.785 L 15.536 258.785 L 16.936 258.735 Z" style="fill: none;"/>
    <path class="cls-1" d="M -98.67 103.905 C -100.07 104.605 -101.49 105.265 -102.97 105.975 C -99.23 114.295 -95.53 122.195 -92.154 130.235 C -91.004 132.955 -89.614 133.935 -86.594 133.935 C -68.448 133.935 -50.298 133.935 -32.144 133.935 C -49.164 121.381 -66.164 108.818 -83.144 96.245 L -98.67 103.905 Z" style="fill: none;"/>
    <path class="cls-1" d="M -2.994 36.685 C -14.474 23.165 -26.384 10.075 -38.144 -3.181 C -39.484 -4.691 -40.884 -6.181 -43.344 -8.801 C -45.124 4.199 -46.794 15.875 -48.164 27.555 C -48.314 28.785 -46.904 30.555 -45.774 31.555 C -30.008 45.441 -14.231 59.315 1.556 73.175 L 36.016 103.435 L 44.776 111.115 C 44.776 111.115 58.706 123.525 62.336 131.115 C 62.553 132.052 62.462 133.034 62.076 133.915 L 122.796 133.915 C 123.536 133.915 128.106 133.745 131.866 133.615 L 112.616 100.285 C 111.881 99.013 111.514 97.563 111.556 96.095 C 110.992 94.331 111.158 92.415 112.016 90.775 C 120.826 71.105 103.836 50.665 85.496 53.445 C 81.306 54.075 77.146 54.985 73.036 55.985 C 65.806 57.755 58.616 59.695 51.146 61.635 L 47.926 49.005 C 37.016 47.795 26.166 46.645 15.296 45.705 C 7.706 45.055 1.966 42.525 -2.994 36.685 Z" style="fill: none;"/>
    <path class="cls-1" d="M -17.524 277.165 C -16.451 269.465 -15.388 261.761 -14.334 254.055 L -14.334 245.765 L -13.184 245.765 C -11.084 230.431 -8.988 215.098 -6.894 199.765 C -6.704 198.425 -6.564 197.075 -6.424 195.765 C -6.424 195.765 1.296 160.765 -0.424 157.765 C -0.534 157.608 -0.687 157.487 -0.864 157.415 C -3.244 155.505 -4.864 154.165 -6.514 152.935 L -14.024 147.385 L -84.384 147.385 C -79.594 158.195 -75.094 168.385 -70.574 178.525 C -55.448 212.611 -40.324 246.711 -25.204 280.825 C -24.294 282.905 -23.424 283.825 -20.954 283.485 C -19.74 283.337 -18.517 283.27 -17.294 283.285 C -17.771 281.28 -17.849 279.2 -17.524 277.165 Z" style="fill: none;"/>
    <path class="cls-1" d="M 49.386 157.045 C 46.705 162.355 44.513 167.898 42.836 173.605 C 35.196 198.045 27.396 222.438 19.436 246.785 L 19.436 258.475 C 18.506 258.575 17.726 258.715 16.936 258.735 L 15.536 258.735 L 8.206 281.165 C 7.259 283.946 5.755 286.505 3.786 288.685 L 9.946 293.025 C 17.946 286.045 25.979 279.045 34.046 272.025 C 69.759 240.891 105.449 209.765 141.116 178.645 C 142.606 177.345 149.206 172.565 152.366 169.015 L 139.686 147.075 C 135.216 146.915 130.126 147.205 128.636 147.205 C 104.222 147.245 79.816 147.245 55.416 147.205 C 54.796 148.265 54.186 149.285 53.606 150.205 C 52.03 152.376 50.619 154.662 49.386 157.045 Z" style="fill: none;"/>
    <path class="cls-1" d="M -180.65 315.985 C -182.28 315.998 -183.86 316.566 -185.12 317.595 C -190.03 321.595 -196.12 322.455 -201.52 319.595 C -206.6 316.805 -209.51 311.255 -208.93 305.495 C -208.23 299.219 -203.57 294.108 -197.38 292.825 C -196.11 292.569 -194.97 291.858 -194.17 290.825 C -179.99 266.385 -165.88 241.908 -151.82 217.395 C -151.69 217.103 -151.58 216.798 -151.5 216.485 C -182.02 200.165 -228.71 201.865 -262.2 232.355 C -296.24 263.321 -305.03 313.393 -283.55 354.095 C -262.42 394.235 -216.55 415.465 -173.01 405.285 C -127.1 394.545 -99.66 356.995 -95.5 321.615 C -103.6 321.055 -111.5 320.485 -119.39 319.955 C -139.81 318.595 -160.22 317.215 -180.65 315.985 Z" style="fill: none;"/>
    <path class="cls-1" d="M 196.396 213.165 L 246.196 299.285 C 249.135 304.697 245.113 311.261 238.956 311.1 C 236.249 311.029 233.762 309.593 232.346 307.285 L 182.056 220.285 C 180.422 221.285 178.829 222.335 177.276 223.435 C 174.276 225.165 167.276 231.205 166.076 232.145 C 130.336 261.705 119.296 320.725 151.146 365.615 C 183.746 411.615 247.996 421.345 292.936 387.615 C 338.136 353.705 346.836 289.165 311.936 244.685 C 284.621 209.797 237.643 196.981 196.396 213.165 Z" style="fill: none;"/>
    <path class="cls-1" d="M -139.52 223.165 C -140.06 223.995 -140.65 224.815 -141.15 225.685 C -154.65 249.018 -168.13 272.385 -181.61 295.785 C -183.97 299.875 -182.61 302.455 -177.83 302.785 C -152.27 304.545 -126.71 306.291 -101.14 308.025 C -98.99 308.165 -96.83 308.025 -94.67 308.025 C -92.524 280.715 -108.45 242.395 -139.52 223.165 Z" style="fill: none;"/>
    <path class="cls-1" d="M -126.82 200.985 C -88.774 227.635 -69.704 263.885 -69.064 310.085 C -66.264 310.295 -63.554 310.575 -60.824 310.685 C -58.094 310.795 -55.324 310.685 -52.684 310.685 C -50.544 306.685 -48.684 302.305 -46.094 298.485 C -43.504 294.665 -40.194 291.485 -36.714 287.485 L -97.61 150.165 L -126.82 200.985 Z" style="fill: none;"/>
    <path d="M 351.436 287.715 C 346.536 258.505 332.676 234.135 310.066 214.975 C 287.456 195.815 261.016 186.685 231.246 186.615 C 231.086 184.845 230.946 183.295 230.786 181.465 C 208.066 182.835 204.956 182.385 184.116 191.295 C 183.665 190.199 182.983 189.213 182.116 188.405 L 126.526 92.275 C 126.396 92.055 126.256 91.835 126.106 91.625 C 132.106 69.625 120.546 49.415 101.936 42.515 C 101.866 43.195 101.816 43.875 101.746 44.515 C 101.746 44.515 98.286 50.155 75.946 52.085 C 66.556 51.085 57.246 49.995 47.946 48.965 L 51.166 61.595 C 58.636 59.655 65.826 57.715 73.056 55.945 C 77.166 54.945 81.326 54.035 85.516 53.405 C 103.856 50.625 120.846 71.065 112.036 90.735 C 111.178 92.375 111.012 94.291 111.576 96.055 C 111.534 97.523 111.901 98.973 112.636 100.245 L 131.876 133.515 C 128.116 133.645 123.546 133.815 122.806 133.815 L 62.076 133.815 C 61.076 137.145 58.176 142.485 55.416 147.205 C 79.829 147.205 104.236 147.205 128.636 147.205 C 130.126 147.205 135.216 146.915 139.686 147.075 L 152.366 169.015 C 149.206 172.565 142.606 177.345 141.116 178.645 C 105.376 209.725 69.686 240.858 34.046 272.045 C 26.006 279.065 17.972 286.065 9.946 293.045 L 3.786 288.705 C 3.282 289.261 2.744 289.785 2.176 290.275 C -1.744 293.565 -6.764 293.785 -11.294 291.005 C -14.279 289.318 -16.446 286.486 -17.294 283.165 C -18.517 283.15 -19.74 283.217 -20.954 283.365 C -23.424 283.705 -24.294 282.785 -25.204 280.705 C -40.284 246.585 -55.408 212.485 -70.574 178.405 C -75.094 168.245 -79.574 158.075 -84.384 147.265 L -14.014 147.265 L -32.134 133.885 C -50.288 133.885 -68.438 133.885 -86.584 133.885 C -89.584 133.885 -90.994 132.885 -92.144 130.185 C -95.52 122.185 -99.22 114.245 -102.96 105.925 C -101.48 105.215 -100.06 104.555 -98.66 103.855 L -83.154 96.155 L -99.96 83.725 C -106.14 79.26 -111.51 73.775 -115.84 67.505 L -146.59 68.135 C -151.93 68.245 -155.87 70.625 -157.85 75.685 C -159.8 79.943 -158.81 84.97 -155.38 88.165 C -154.22 89.271 -152.86 90.165 -151.38 90.805 C -140.86 95.685 -130.28 100.425 -119.81 105.385 C -118.24 106.182 -116.96 107.465 -116.17 109.045 C -112.48 116.955 -108.98 124.945 -105.58 132.985 C -105.05 134.265 -105.05 135.705 -105.58 136.985 C -116.35 155.835 -127.25 174.615 -138.13 193.405 C -138.31 193.675 -138.51 193.933 -138.72 194.175 C -189.56 171.745 -236.6 177.845 -278.72 214.075 C -312.06 242.755 -323.27 282.985 -319.64 314.755 L -314.92 314.755 C -310.71 356.515 -291.43 389.125 -255.23 410.905 C -235.01 423.15 -211.5 428.83 -187.91 427.165 C -159.23 425.395 -134.2 414.615 -113.11 395.085 C -92.024 375.555 -79.904 351.475 -75.754 322.915 C -68.654 323.375 -61.754 323.765 -54.954 324.335 C -54.055 324.605 -53.343 325.294 -53.044 326.185 C -51.312 336.335 -45.572 345.362 -37.114 351.235 C -31.127 355.299 -24.149 357.663 -16.924 358.075 C -15.924 357.945 -14.674 357.875 -13.064 357.785 C 11.096 356.495 27.876 329.985 18.806 307.225 C 17.806 304.795 18.066 303.535 20.066 301.805 C 62.246 265.138 104.386 228.445 146.486 191.725 C 147.056 191.225 155.156 185.245 159.776 181.805 L 169.556 198.715 C 166.456 201.325 154.656 208.765 153.846 209.425 C 139.016 221.565 127.106 236.095 119.396 253.635 C 100.209 297.201 103.746 338.938 130.006 378.845 C 130.436 379.495 131.006 380.085 131.586 380.895 L 135.866 378.115 C 156.056 404.765 182.336 421.325 215.506 426.035 C 242.676 429.905 268.386 424.955 292.356 411.615 C 339.356 385.455 359.026 333.005 351.436 287.715 Z M -173.01 405.285 C -216.53 415.465 -262.42 394.285 -283.55 354.095 C -305.03 313.393 -296.24 263.321 -262.2 232.355 C -228.71 201.865 -182.02 200.165 -151.53 216.445 C -151.61 216.758 -151.72 217.063 -151.85 217.355 C -165.94 241.841 -180.06 266.318 -194.2 290.785 C -195 291.818 -196.14 292.529 -197.41 292.785 C -203.58 294.076 -208.22 299.169 -208.93 305.425 C -209.51 311.185 -206.6 316.735 -201.52 319.525 C -196.15 322.415 -190.03 321.525 -185.12 317.525 C -183.86 316.496 -182.28 315.928 -180.65 315.915 C -160.22 317.145 -139.81 318.525 -119.39 319.915 C -111.49 320.445 -103.6 321.015 -95.5 321.575 C -99.66 356.995 -127.1 394.545 -173.01 405.285 Z M -94.67 308.005 C -96.83 308.005 -98.99 308.125 -101.14 308.005 C -126.72 306.285 -152.28 304.538 -177.83 302.765 C -182.58 302.435 -183.97 299.855 -181.61 295.765 C -168.13 272.398 -154.65 249.031 -141.15 225.665 C -140.65 224.795 -140.06 223.975 -139.52 223.145 C -108.45 242.395 -92.524 280.715 -94.67 308.005 Z M -46.094 298.505 C -48.694 302.325 -50.544 306.665 -52.684 310.705 C -55.324 310.705 -58.084 310.785 -60.824 310.705 C -63.564 310.625 -66.264 310.315 -69.064 310.105 C -69.704 263.905 -88.774 227.655 -126.82 201.005 L -97.61 150.165 L -36.714 287.515 C -40.194 291.515 -43.524 294.755 -46.094 298.505 Z M 292.906 387.695 C 247.966 421.405 183.716 411.625 151.116 365.695 C 119.296 320.785 130.336 261.765 166.076 232.165 C 167.286 231.225 174.286 225.165 177.276 223.455 C 178.836 222.355 180.429 221.305 182.056 220.305 L 180.1 211.956 C 183.319 217.206 174.284 228.819 177.22 223.406 C 178.512 221.026 201.462 212.059 200.17 209.679 L 196.396 213.165 C 237.66 196.999 284.643 209.848 311.936 244.765 C 346.836 289.245 338.136 353.785 292.936 387.695 L 292.906 387.695 Z"/>
    <path d="M -4.024 258.835 L -14.334 258.835 L -14.334 254.015 C -15.394 261.715 -16.458 269.418 -17.524 277.125 C -17.837 279.12 -17.762 281.157 -17.304 283.125 C -15.504 283.125 -13.624 283.235 -11.624 283.235 C -9.134 275.295 -6.674 267.365 -4.024 258.835 Z"/>
    <path d="M 15.536 258.775 C 10.006 258.965 9.856 259.425 7.936 265.775 C 5.836 272.681 3.739 279.601 1.646 286.535 C 1.615 286.77 1.615 287.009 1.646 287.245 L 3.796 288.755 C 5.765 286.575 7.269 284.016 8.216 281.235 L 15.536 258.775 Z"/>
    <path d="M -6.514 152.825 C -4.844 154.055 -3.244 155.395 -0.864 157.305 C -0.687 157.377 -0.534 157.498 -0.424 157.655 C 1.306 160.655 -6.424 195.655 -6.424 195.655 C -6.564 197.005 -6.704 198.355 -6.894 199.655 C -8.988 214.988 -11.084 230.321 -13.184 245.655 L 19.436 245.655 L 19.436 246.715 C 27.356 222.355 35.156 197.961 42.836 173.535 C 44.513 167.828 46.705 162.285 49.386 156.975 C 50.623 154.623 52.033 152.367 53.606 150.225 C 54.186 149.225 54.796 148.225 55.416 147.225 L -14.024 147.225 L -6.514 152.825 Z"/>
    <path d="M -62.104 66.935 C -59.034 66.935 -56.104 67.345 -53.974 69.935 C -50.254 74.335 -51.474 80.325 -57.084 83.175 C -65.751 87.595 -74.444 91.955 -83.164 96.255 C -66.164 108.821 -49.164 121.385 -32.164 133.945 C -0.764 133.945 30.642 133.945 62.056 133.945 C 62.442 133.064 62.533 132.082 62.316 131.145 C 58.686 123.595 44.756 111.145 44.756 111.145 L 35.996 103.465 L 1.556 73.165 C -14.231 59.305 -30.008 45.431 -45.774 31.545 C -46.904 30.545 -48.314 28.785 -48.164 27.545 C -46.794 15.865 -45.164 4.229 -43.344 -8.811 C -40.884 -6.161 -39.484 -4.701 -38.144 -3.191 C -26.384 10.075 -14.474 23.165 -2.994 36.685 C 2.006 42.525 7.706 45.055 15.306 45.685 C 26.176 46.625 37.026 47.775 47.936 48.985 L 47.936 48.885 C 48.52 48.618 49.118 48.381 49.726 48.175 C 59.176 45.765 68.576 43.105 78.106 41.025 C 86.018 39.203 94.288 39.714 101.916 42.495 C 101.996 41.625 102.076 40.755 102.146 39.875 C 102.626 33.875 99.146 29.055 92.586 26.875 C 72.996 20.485 53.396 14.105 33.716 7.999 C 29.131 6.769 25.222 3.769 22.856 -0.341 C 3.896 -31.741 -15.244 -63.031 -34.564 -94.211 C -44.144 -109.64 -58.564 -116.68 -76.494 -114.46 C -94.17 -112.28 -106.1 -101.98 -111.97 -85.101 C -113.04 -81.521 -113.71 -77.831 -113.97 -74.101 C -117.67 -40.531 -121.25 -6.951 -124.97 26.615 C -126.69 42.335 -123.64 55.955 -115.81 67.475 C -110.31 67.365 -104.81 67.255 -99.31 67.175 C -86.934 67.065 -74.514 67.035 -62.104 66.935 Z"/>
    <path d="M -99.97 83.775 L -83.164 96.165 C -74.458 91.845 -65.764 87.485 -57.084 83.085 C -51.474 80.235 -50.254 74.245 -53.974 69.845 C -56.124 67.305 -59.034 66.845 -62.104 66.845 C -74.514 66.945 -86.934 66.975 -99.35 67.165 C -104.85 67.245 -110.35 67.355 -115.85 67.465 C -111.53 73.767 -106.16 79.283 -99.97 83.775 Z"/>
    <path d="M 1.616 286.495 C 3.709 279.561 5.806 272.641 7.906 265.735 C 9.826 259.425 9.976 258.965 15.506 258.735 L 19.406 246.735 L 19.406 245.675 L -13.184 245.675 C -13.564 248.435 -13.954 251.195 -14.334 253.965 L -14.334 258.785 L -4.024 258.785 C -6.674 267.315 -9.134 275.245 -11.624 283.235 C -13.624 283.235 -15.504 283.135 -17.304 283.125 C -16.456 286.446 -14.289 289.278 -11.304 290.965 C -6.774 293.745 -1.754 293.525 2.166 290.235 C 2.734 289.745 3.272 289.221 3.776 288.665 L 1.616 287.165 C 1.588 286.942 1.588 286.717 1.616 286.495 Z"/>
    <path d="M -14.024 147.275 L 55.416 147.275 C 58.176 142.555 61.056 137.215 62.076 133.885 C 30.669 133.885 -0.738 133.885 -32.144 133.885 L -14.024 147.275 Z"/>
    <path d="M 78.076 41.045 C 68.546 43.125 59.146 45.785 49.696 48.195 C 49.088 48.401 48.49 48.638 47.906 48.905 L 47.906 49.005 C 57.166 50.005 66.476 51.105 75.906 52.125 C 98.246 50.195 101.686 44.585 101.706 44.555 C 101.776 43.875 101.826 43.195 101.896 42.555 C 94.269 39.758 85.995 39.234 78.076 41.045 Z"/>
  </g>
  <g id="Capa_1-1" transform="matrix(1, 0, 0, 1, 0.152529, 2.287938)">
    <g transform="matrix(1, 0, 0, 1, -262.784088, -271.274292)">
      <g>
        <path d="M 276.228 284.892 C 276.228 284.892 277.519 282.092 277.52 282.091 L 277.591 281.932 C 277.314 282.011 276.693 282.164 276.691 282.17 C 276.756 281.988 277.035 281.173 277.047 281.173 C 276.781 281.173 276.517 281.173 276.251 281.173 L 276.17 281.557 L 275.831 282.951 L 276.728 282.707 L 276.228 284.892 Z" style=""/>
      </g>
    </g>
  </g>
</svg>